# xmcd CD database file
#
# Track frame offsets:
#	150
#	26205
#	49823
#	77478
#
# Disc length: 1357 seconds
#
# Revision: 0
# Processed by: cddbd v1.5.2PL0 Copyright (c) Steve Scherf et al.
# Submitted via: CDex 1.70beta2
#
DISCID=29054b04
DTITLE=Jan Garbarek - I Took Up The Runes 
DYEAR=1990
DGENRE=Jazz
TTITLE0=Molde Canticle Part 2
TTITLE1=Molde Canticle Part 4
TTITLE2=Molde Canticle Part 5
TTITLE3=I Took Up The Runes
EXTD=YEAR: 1990
EXTT0=
EXTT1=
EXTT2=
EXTT3=
PLAYORDER=
